<svg viewBox="0 0 14.5752 12.605" xmlns="http://www.w3.org/2000/svg" xmlns:xlink="http://www.w3.org/1999/xlink" width="14.575195" height="12.604980" fill="none">
	<rect id="Icons-dribbble" width="14.575342" height="12.604972" x="0.000000" y="0.000000" fill="rgb(255,255,255)" fill-opacity="0" />
	<path id="Vector" d="M0 0L14.5753 0L14.5753 12.605L0 12.605L0 0Z" fill-rule="nonzero" />
	<path id="Vector" d="M12.1392 6.07758C12.0894 5.25085 11.7569 4.45553 11.1839 3.7924C11.0093 3.95502 10.8227 4.10765 10.6252 4.24933C10.0184 4.68517 9.3404 5.04092 8.61316 5.305C8.71458 5.48882 8.8075 5.66686 8.88949 5.83493L8.88949 5.83651C8.91262 5.88347 8.93489 5.93074 8.95629 5.97831C9.87575 5.88903 10.845 5.92159 11.7845 6.03136C11.9096 6.04606 12.0274 6.06182 12.1392 6.07758ZM6.43962 2.16478C7.03146 2.88598 7.57723 3.63465 8.07448 4.40742C8.81722 4.15427 9.4312 3.83494 9.92555 3.47938C10.0971 3.35707 10.2587 3.22457 10.409 3.08284C9.53504 2.4472 8.42934 2.09931 7.28741 2.10071C7.00322 2.10054 6.71954 2.1218 6.43962 2.16426L6.43962 2.16478ZM2.58262 5.25037C2.99633 5.24134 3.40955 5.2198 3.82152 5.18577C4.81728 5.10875 5.80454 4.9644 6.77424 4.75405C6.26745 3.99261 5.72029 3.25181 5.13451 2.534C4.50882 2.80207 3.95711 3.18337 3.5168 3.65206C3.0765 4.12074 2.7579 4.66584 2.58262 5.25037ZM3.51179 8.94678C3.74743 8.64899 4.05715 8.31391 4.4683 7.94941C5.35132 7.16686 6.39346 6.55762 7.59957 6.22148L7.63722 6.21203C7.53702 6.02085 7.44288 5.85016 7.34815 5.68945C6.23313 5.97043 5.0586 6.14585 3.88832 6.23671C3.31746 6.28136 2.8055 6.30079 2.42897 6.30394C2.42789 7.26643 2.81053 8.19982 3.5124 8.94678L3.51179 8.94678ZM9.11237 10.1968C8.87817 9.17538 8.54667 8.17249 8.12125 7.19837C6.90542 7.58019 5.93677 8.13849 5.18796 8.80445C4.88576 9.06831 4.61759 9.35975 4.38814 9.67367C5.22549 10.214 6.24265 10.5053 7.28741 10.504C7.91289 10.5048 8.53261 10.4008 9.11237 10.1978L9.11237 10.1968ZM10.2499 9.63218C11.198 9.0018 11.8439 8.09107 12.0639 7.07442C11.8574 7.02978 11.5956 6.98513 11.3078 6.95047C10.6678 6.87077 10.0183 6.86494 9.37655 6.93314C9.73793 7.81487 10.0297 8.7168 10.2499 9.6327L10.2499 9.63218ZM7.28741 11.5544C3.93326 11.5544 1.21436 9.20308 1.21436 6.30236C1.21436 3.40165 3.93326 1.05029 7.28741 1.05029C10.6416 1.05029 13.3605 3.40165 13.3605 6.30236C13.3605 9.20308 10.6416 11.5544 7.28741 11.5544Z" fill="rgb(43,43,43)" fill-rule="nonzero" />
</svg>
