<svg viewBox="0 0 14.5752 12.605" xmlns="http://www.w3.org/2000/svg" xmlns:xlink="http://www.w3.org/1999/xlink" width="14.575195" height="12.604980" fill="none">
	<rect id="Icons-facebook" width="14.575342" height="12.604972" x="0.000000" y="0.000000" fill="rgb(255,255,255)" fill-opacity="0" />
	<path id="Vector" d="M0 0L14.5753 0L14.5753 12.605L0 12.605L0 0Z" fill-rule="nonzero" />
	<path id="Vector" d="M8.50212 7.09018L10.0204 7.09018L10.6277 4.98935L8.50212 4.98935L8.50212 3.93893C8.50212 3.39797 8.50212 2.88852 9.71673 2.88852L10.6277 2.88852L10.6277 1.12382C10.4297 1.10124 9.68211 1.05029 8.89262 1.05029C7.24378 1.05029 6.07289 1.92056 6.07289 3.51877L6.07289 4.98935L4.25098 4.98935L4.25098 7.09018L6.07289 7.09018L6.07289 11.5544L8.50212 11.5544L8.50212 7.09018Z" fill="rgb(43,43,43)" fill-rule="nonzero" />
</svg>
