<svg viewBox="0 0 14.5752 12.605" xmlns="http://www.w3.org/2000/svg" xmlns:xlink="http://www.w3.org/1999/xlink" width="14.575195" height="12.604980" fill="none">
	<rect id="Icons-instagram" width="14.575342" height="12.604972" x="0.000000" y="0.000000" fill="rgb(255,255,255)" fill-opacity="0" />
	<path id="Vector" d="M0 0L14.5753 0L14.5753 12.605L0 12.605L0 0Z" fill-rule="nonzero" />
	<path id="Vector" d="M7.2879 1.05029C8.93795 1.05029 9.14383 1.05554 9.79122 1.08181C10.438 1.10807 10.8783 1.19578 11.2658 1.32603C11.6666 1.45943 12.0042 1.6401 12.3419 1.93159C12.6507 2.19414 12.8897 2.51173 13.0421 2.86226C13.1921 3.19681 13.2942 3.57811 13.3245 4.13746C13.3531 4.69733 13.361 4.87538 13.361 6.30236C13.361 7.72935 13.3549 7.9074 13.3245 8.46727C13.2942 9.02661 13.1921 9.40739 13.0421 9.74247C12.8901 10.0932 12.6511 10.4109 12.3419 10.6731C12.0382 10.9401 11.671 11.1467 11.2658 11.2787C10.8789 11.4084 10.438 11.4967 9.79122 11.5229C9.14383 11.5476 8.93795 11.5544 7.2879 11.5544C5.63785 11.5544 5.43198 11.5492 4.78459 11.5229C4.13781 11.4967 3.69751 11.4084 3.31005 11.2787C2.90457 11.1471 2.53727 10.9404 2.2339 10.6731C1.92503 10.4106 1.68607 10.093 1.53368 9.74247C1.38307 9.40791 1.28165 9.02661 1.25128 8.46727C1.22274 7.9074 1.21484 7.72935 1.21484 6.30236C1.21484 4.87538 1.22092 4.69733 1.25128 4.13746C1.28165 3.57759 1.38307 3.19734 1.53368 2.86226C1.68565 2.51151 1.92467 2.19384 2.2339 1.93159C2.53736 1.66438 2.90463 1.45771 3.31005 1.32603C3.69751 1.19578 4.1372 1.10807 4.78459 1.08181C5.43198 1.05712 5.63785 1.05029 7.2879 1.05029ZM7.2879 3.67633C6.48256 3.67633 5.71021 3.953 5.14075 4.44548C4.57129 4.93795 4.25137 5.6059 4.25137 6.30236C4.25137 6.99883 4.57129 7.66677 5.14075 8.15925C5.71021 8.65173 6.48256 8.9284 7.2879 8.9284C8.09324 8.9284 8.86559 8.65173 9.43505 8.15925C10.0045 7.66677 10.3244 6.99883 10.3244 6.30236C10.3244 5.6059 10.0045 4.93795 9.43505 4.44548C8.86559 3.953 8.09324 3.67633 7.2879 3.67633ZM11.2354 3.54503C11.2354 3.37091 11.1554 3.20392 11.013 3.08081C10.8707 2.95769 10.6776 2.88852 10.4763 2.88852C10.2749 2.88852 10.0818 2.95769 9.93947 3.08081C9.79711 3.20392 9.71713 3.37091 9.71713 3.54503C9.71713 3.71914 9.79711 3.88613 9.93947 4.00925C10.0818 4.13237 10.2749 4.20154 10.4763 4.20154C10.6776 4.20154 10.8707 4.13237 11.013 4.00925C11.1554 3.88613 11.2354 3.71914 11.2354 3.54503ZM7.2879 4.72674C7.77111 4.72674 8.23452 4.89275 8.57619 5.18823C8.91787 5.48372 9.10982 5.88448 9.10982 6.30236C9.10982 6.72025 8.91787 7.12101 8.57619 7.4165C8.23452 7.71198 7.77111 7.87799 7.2879 7.87799C6.8047 7.87799 6.34129 7.71198 5.99961 7.4165C5.65794 7.12101 5.46598 6.72025 5.46598 6.30236C5.46598 5.88448 5.65794 5.48372 5.99961 5.18823C6.34129 4.89275 6.8047 4.72674 7.2879 4.72674Z" fill="rgb(43,43,43)" fill-rule="nonzero" />
</svg>
