<svg viewBox="0 0 14.5752 12.605" xmlns="http://www.w3.org/2000/svg" xmlns:xlink="http://www.w3.org/1999/xlink" width="14.575195" height="12.604980" fill="none">
	<rect id="Icons-twitter" width="14.575342" height="12.604972" x="0.000000" y="0.000000" fill="rgb(255,255,255)" fill-opacity="0" />
	<path id="Vector" d="M0 0L14.5753 0L14.5753 12.605L0 12.605L0 0Z" fill-rule="nonzero" />
	<path id="Vector" d="M13.4593 2.97082C12.9956 3.14818 12.504 3.26466 12.0005 3.31641C12.5312 3.04195 12.9283 2.61001 13.118 2.10108C12.62 2.35738 12.074 2.537 11.505 2.63416C11.1227 2.28048 10.6161 2.04591 10.0638 1.96693C9.51152 1.88795 8.94454 1.96898 8.45099 2.19743C7.95745 2.42587 7.56501 2.78893 7.33467 3.23016C7.10434 3.67139 7.04902 4.16607 7.17731 4.6373C6.16743 4.59353 5.17948 4.36657 4.2776 3.97116C3.37572 3.57576 2.58008 3.02074 1.94233 2.34215C1.71659 2.67746 1.59796 3.05865 1.5986 3.44666C1.5986 4.20821 2.04679 4.881 2.72819 5.2749C2.32494 5.26392 1.93057 5.16975 1.57795 5.00022L1.57795 5.02753C1.57807 5.53472 1.78101 6.02627 2.15237 6.41884C2.52372 6.8114 3.04064 7.08082 3.61546 7.18141C3.24113 7.26913 2.84862 7.28207 2.46765 7.21922C2.62972 7.65579 2.94561 8.0376 3.37108 8.31118C3.79655 8.58477 4.3103 8.73644 4.8404 8.74495C4.31355 9.10279 3.71031 9.36731 3.06517 9.52339C2.42003 9.67948 1.74564 9.72407 1.08057 9.65461C2.24155 10.3003 3.59305 10.6431 4.9734 10.642C9.6454 10.642 12.2003 7.29485 12.2003 4.39203C12.2003 4.29749 12.1973 4.2019 12.1924 4.10842C12.6897 3.79758 13.1189 3.41253 13.4599 2.97134L13.4593 2.97082Z" fill="rgb(43,43,43)" fill-rule="nonzero" />
</svg>
